<?xml version="1.0" encoding="UTF-8" standalone="no"?><!DOCTYPE svg PUBLIC "-//W3C//DTD SVG 1.1//EN" "http://www.w3.org/Graphics/SVG/1.1/DTD/svg11.dtd"><svg width="100%" height="100%" viewBox="0 0 55 14" version="1.1" xmlns="http://www.w3.org/2000/svg" xmlns:xlink="http://www.w3.org/1999/xlink" xml:space="preserve" xmlns:serif="http://www.serif.com/" style="fill-rule:evenodd;clip-rule:evenodd;stroke-linejoin:round;stroke-miterlimit:1.41421;"><clipPath id="_clip1"><rect id="EOX_Logo" x="0" y="0" width="54.828" height="13.124"/></clipPath><g clip-path="url(#_clip1)"><g id="ink_ext_XXXXXX"><path id="path5076" d="M23.673,6.27l-0.116,-0.003l-0.114,-0.009l-0.112,-0.014l-0.111,-0.02l-0.108,-0.025l-0.108,-0.03l-0.105,-0.035l-0.1,-0.041l-0.101,-0.045l-0.097,-0.049l-0.094,-0.055l-0.091,-0.058l-0.087,-0.063l-0.085,-0.067l-0.084,-0.07l-0.077,-0.075l-0.075,-0.078l-0.07,-0.082l-0.068,-0.085l-0.062,-0.088l-0.058,-0.091l-0.054,-0.094l-0.05,-0.098l-0.045,-0.099l-0.04,-0.102l-0.035,-0.105l-0.031,-0.107l-0.025,-0.109l-0.019,-0.111l-0.016,-0.112l-0.008,-0.115l-0.003,-0.116c0,-1.241 1.007,-2.248 2.249,-2.248c1.244,0 2.25,1.007 2.25,2.248c0,1.244 -1.006,2.251 -2.25,2.251Z" style="fill:none;"/><path id="path5078" d="M25.648,0c-6.501,0 -11.77,2.937 -11.77,6.561c0,2.053 1.69,3.884 4.336,5.087c-1.25,-0.849 -2.074,-2.007 -2.256,-3.382c-0.416,-3.124 2.604,-6.317 6.986,-7.678c-2.273,1.031 -3.857,3.316 -3.857,5.973c0,3.593 2.886,6.506 6.464,6.558c-0.006,0.001 -0.013,0.003 -0.021,0.003c0.041,0 0.079,0.002 0.118,0.002c6.501,0 11.772,-2.938 11.772,-6.563c0,-2.052 -1.693,-3.884 -4.339,-5.086l0.116,0.08l0.114,0.082l0.111,0.084l0.108,0.086l0.106,0.088l0.103,0.089l0.1,0.091l0.097,0.093l0.095,0.094l0.091,0.097l0.089,0.097l0.087,0.1l0.083,0.101l0.079,0.102l0.078,0.104l0.073,0.106l0.07,0.107l0.067,0.109l0.066,0.11l0.06,0.112l0.058,0.113l0.055,0.115l0.052,0.116l0.046,0.117l0.045,0.119l0.04,0.121l0.039,0.121l0.033,0.123l0.029,0.125l0.027,0.126l0.023,0.127l0.019,0.128c0.414,3.124 -2.605,6.317 -6.986,7.678c2.273,-1.031 3.857,-3.315 3.857,-5.975c0,-3.59 -2.886,-6.503 -6.464,-6.556c0.007,-0.001 0.015,-0.002 0.023,-0.004c-0.041,0 -0.082,-0.001 -0.122,-0.001Zm-2.05,1.75c1.209,0 2.205,0.996 2.205,2.206c0,0 0,0 0,0c0,1.209 -0.996,2.205 -2.205,2.205c-1.21,0 -2.205,-0.996 -2.205,-2.205c0,0 0,0 0,0c0,-1.21 0.995,-2.206 2.205,-2.206Z" style="fill:#004170;fill-rule:nonzero;"/><path id="path5080" d="M33.081,1.475l0.116,0.08l0.114,0.082l0.111,0.085l0.108,0.085l0.106,0.088l0.103,0.089l0.1,0.091l0.097,0.093l0.095,0.095l0.091,0.096l0.089,0.097l0.087,0.1l0.083,0.101l0.079,0.102l0.078,0.104l0.073,0.106l0.07,0.107l0.068,0.109l0.065,0.11l0.06,0.112l0.058,0.113l0.054,0.115l0.053,0.116l0.046,0.117l0.045,0.119l0.04,0.121l0.039,0.121l0.033,0.123l0.029,0.125l0.027,0.126l0.023,0.127l0.019,0.128c0.414,3.124 -2.605,6.317 -6.986,7.678c2.273,-1.031 3.857,-3.315 3.857,-5.975c0,-3.59 -2.886,-6.503 -6.464,-6.556c0.007,-0.001 0.015,-0.002 0.023,-0.004c-0.041,0 -0.081,-0.001 -0.122,-0.001c-6.501,0 -11.77,2.937 -11.77,6.561c0,2.053 1.69,3.884 4.336,5.087c-1.25,-0.849 -2.074,-2.007 -2.257,-3.382c-0.415,-3.124 2.605,-6.317 6.987,-7.678c-2.273,1.032 -3.857,3.316 -3.857,5.973c0,3.593 2.886,6.506 6.464,6.558c-0.006,0.001 -0.013,0.003 -0.021,0.003c0.041,0 0.079,0.002 0.118,0.002c6.501,0 11.772,-2.938 11.772,-6.563c0,-2.052 -1.693,-3.884 -4.339,-5.086Z" style="fill:none;"/><path id="path5082" d="M54.828,12.779l-6.499,-6.499l5.961,-5.96l-4.629,0l-3.646,3.646l-3.646,-3.646l-4.63,0l5.961,5.96l-6.499,6.499l4.629,0l4.185,-4.185l4.186,4.185l4.627,0" style="fill:#004170;fill-rule:nonzero;"/><path id="path5084" d="M54.828,12.779l-6.499,-6.499l5.961,-5.96l-4.629,0l-3.646,3.646l-3.646,-3.646l-4.63,0l5.961,5.96l-6.499,6.499l4.629,0l4.185,-4.185l4.186,4.185l4.627,0Z" style="fill:none;"/><path id="path5086" d="M0,0.32l11.611,0l0,2.552l-7.99,0l0,2.31l6.23,0l0,2.552l-6.23,0l0,2.484l8.221,0l0,2.551l-11.842,0l0,-12.449" style="fill:#004170;fill-rule:nonzero;"/><path id="path5088" d="M0,0.32l11.611,0l0,2.552l-7.99,0l0,2.31l6.23,0l0,2.552l-6.23,0l0,2.484l8.221,0l0,2.551l-11.842,0l0,-12.449Z" style="fill:none;"/></g></g></svg>