<?xml version="1.0" encoding="UTF-8" standalone="no"?><!DOCTYPE svg PUBLIC "-//W3C//DTD SVG 1.1//EN" "http://www.w3.org/Graphics/SVG/1.1/DTD/svg11.dtd"><svg width="100%" height="100%" viewBox="0 0 50 14" version="1.1" xmlns="http://www.w3.org/2000/svg" xmlns:xlink="http://www.w3.org/1999/xlink" xml:space="preserve" xmlns:serif="http://www.serif.com/" style="fill-rule:evenodd;clip-rule:evenodd;stroke-linejoin:round;stroke-miterlimit:1.41421;"><clipPath id="_clip1"><rect id="a4ffa_gisat-logo-eps" x="0" y="0" width="49.608" height="13.124"/></clipPath><g clip-path="url(#_clip1)"><g><path d="M8.456,6.754c-0.002,-1.61 -1.011,-3.063 -2.473,-3.707c-1.485,-0.654 -3.279,-0.417 -4.528,0.626c-1.222,1.022 -1.754,2.698 -1.288,4.229c0.471,1.55 1.87,2.662 3.457,2.885c1.598,0.223 3.261,-0.48 4.161,-1.83c0.434,-0.651 0.671,-1.422 0.671,-2.203Z" style="fill:#146eb6;fill-rule:nonzero;"/><path d="M30.108,10.828l-3.845,0l0,-1.853l0.769,0l0,-4.445l-0.769,0l0,-1.851l3.077,0l0,6.296l0.768,0l0,1.853Z" style="fill:#146eb6;fill-rule:nonzero;"/><rect x="27.032" y="0.085" width="2.308" height="1.853" style="fill:#146eb6;fill-rule:nonzero;"/><path d="M31.532,3.568l0,2.297l0.923,0.889l2.153,1.481l0,0.74l-3.076,0l0,1.853l4.462,0l0.922,-0.889l0,-2.297l-0.922,-0.888l-2.155,-1.482l0,-0.742l3.077,0l0,-1.851l-4.461,0l-0.923,0.889Z" style="fill:#146eb6;fill-rule:nonzero;"/><path d="M45.761,9.939l0,-5.409l-1.537,0l0,-1.851l1.537,0l0,-1.853l2.308,0l0,1.853l1.539,0l0,1.851l-1.539,0l0,4.445l1.539,0l0,1.853l-2.923,0l-0.924,-0.889Z" style="fill:#146eb6;fill-rule:nonzero;"/><path d="M8.611,13.124c-0.847,0 -1.693,0 -2.539,0c1.734,-1.669 4.129,-3.419 4.129,-6.095c0,-1.282 -0.289,-2.528 -1.074,-3.569c-0.829,-1.1 -1.941,-2.004 -2.929,-2.956c-0.042,-0.041 -0.084,-0.081 -0.126,-0.122c0.518,0 1.037,0 1.555,0c0.204,0 0.861,-0.118 1.017,0.033c0.645,0.621 1.289,1.241 1.933,1.862c1.549,1.492 3.099,2.984 4.648,4.477c-2.205,2.122 -4.41,4.247 -6.614,6.37Z" style="fill:#146eb6;fill-rule:nonzero;"/><path d="M20.378,2.679l-0.922,0.889l0,5.63l0.922,0.888l2.154,0l0,0.742l-3.076,0l0,1.852l4.461,0l0.923,-0.889l0,-9.112l-4.462,0Zm2.154,5.556l-0.769,0l0,-3.705l0.769,0l0,3.705Z" style="fill:#146eb6;fill-rule:nonzero;"/><path d="M42.532,2.679l-3.538,0l0,1.851l2.153,0l0,0.742l-2.153,0l-0.924,0.888l0,3.779l0.924,0.889l4.46,0l0,-7.26l-0.922,-0.889Zm-1.385,6.296l-0.77,0l0,-1.851l0.77,0l0,1.851Z" style="fill:#146eb6;fill-rule:nonzero;"/></g></g></svg>