<?xml version="1.0" encoding="UTF-8" standalone="no"?><!DOCTYPE svg PUBLIC "-//W3C//DTD SVG 1.1//EN" "http://www.w3.org/Graphics/SVG/1.1/DTD/svg11.dtd"><svg width="100%" height="100%" viewBox="0 0 74 19" version="1.1" xmlns="http://www.w3.org/2000/svg" xmlns:xlink="http://www.w3.org/1999/xlink" xml:space="preserve" xmlns:serif="http://www.serif.com/" style="fill-rule:evenodd;clip-rule:evenodd;stroke-linejoin:round;stroke-miterlimit:1.41421;"><g id="Layer-1" serif:id="Layer 1"><path d="M70.365,11.765l0,-2.47l2.318,0l0,-0.406l-2.318,0l0,-2.16l2.455,0l0,-0.406l-0.032,0l-2.89,0l0,5.849l3.059,0l0,-0.407l-2.592,0Z" style="fill:#7e7c00;fill-rule:nonzero;"/><path d="M65.496,8.926c-0.874,-0.342 -1.184,-0.673 -1.184,-1.267c0,-0.38 0.258,-1.024 1.223,-1.024c0.466,0 0.831,0.145 1.002,0.269l0.033,0.023l0.181,-0.403l-0.023,-0.016c-0.207,-0.135 -0.622,-0.28 -1.167,-0.28c-0.993,0 -1.714,0.631 -1.714,1.5c0,0.749 0.481,1.265 1.515,1.626c0.823,0.324 1.145,0.695 1.145,1.325c0,0.713 -0.533,1.171 -1.358,1.171c-0.443,0 -0.899,-0.137 -1.252,-0.379l-0.032,-0.022l-0.182,0.4l0.022,0.015c0.312,0.232 0.901,0.402 1.401,0.402c1.29,0 1.868,-0.818 1.868,-1.629c0,-0.923 -0.591,-1.351 -1.478,-1.711" style="fill:#7e7c00;fill-rule:nonzero;"/><path d="M60.344,6.323l0,5.849l0.468,0l0,-5.849l-0.033,0l-0.435,0Z" style="fill:#7e7c00;fill-rule:nonzero;"/><path d="M55.502,9.638l1.349,0l0,1.992c-0.147,0.073 -0.484,0.187 -1.179,0.187c-1.516,0 -2.458,-0.985 -2.458,-2.57c0,-1.585 0.974,-2.569 2.543,-2.569c0.483,0 0.882,0.079 1.223,0.246l0.032,0.015l0.151,-0.404l-0.028,-0.011c-0.093,-0.045 -0.601,-0.262 -1.361,-0.262c-2.102,0 -3.044,1.508 -3.044,3.001c0,0.898 0.293,1.697 0.799,2.195c0.536,0.521 1.215,0.773 2.075,0.773c0.797,0 1.404,-0.201 1.693,-0.32l0.021,-0.008l0,-2.662l-1.816,0l0,0.397Z" style="fill:#7e7c00;fill-rule:nonzero;"/><path d="M47.361,9.121l0,-2.372c0.096,-0.021 0.366,-0.071 0.801,-0.071c0.698,0 1.529,0.21 1.529,1.213c0,0.365 -0.135,0.673 -0.391,0.892c-0.258,0.221 -0.623,0.338 -1.053,0.338l-0.886,0Zm2.992,3.004c-0.112,-0.217 -0.216,-0.594 -0.427,-1.555c-0.14,-0.66 -0.435,-1.071 -0.871,-1.229c0.716,-0.265 1.113,-0.799 1.113,-1.519c0,-0.411 -0.156,-0.805 -0.414,-1.053c-0.357,-0.34 -0.844,-0.488 -1.585,-0.488c-0.424,0 -0.915,0.046 -1.25,0.119l-0.025,0.006l0,5.766l0.467,0l0,-2.652l0.87,0c0.725,0.032 1.093,0.384 1.265,1.217c0.164,0.775 0.29,1.252 0.371,1.417l0.01,0.018l0.499,0l-0.023,-0.047Z" style="fill:#7e7c00;fill-rule:nonzero;"/><path d="M41.48,9.295l2.319,0l0,-0.406l-2.319,0l0,-2.159l2.456,0l0,-0.407l-0.03,0l-2.892,0l0,5.849l3.059,0l0,-0.407l-2.593,0l0,-2.47Z" style="fill:#7e7c00;fill-rule:nonzero;"/><path d="M37.331,6.323l0,2.907c0,0.926 0.012,1.544 0.062,2.254c-0.267,-0.515 -0.585,-1.031 -1.033,-1.731l-2.267,-3.43l-0.436,0l0,5.849l0.459,0l0,-2.96c0,-0.897 -0.009,-1.527 -0.047,-2.21c0.28,0.539 0.635,1.099 1.016,1.692l0.063,0.098l2.215,3.38l0.436,0l0,-5.849l-0.032,0l-0.436,0Z" style="fill:#7e7c00;fill-rule:nonzero;"/><path d="M29.966,6.323l0,5.849l0.467,0l0,-5.849l-0.031,0l-0.436,0Z" style="fill:#7e7c00;fill-rule:nonzero;"/><path d="M25.565,8.926c-0.873,-0.342 -1.184,-0.673 -1.184,-1.267c0,-0.38 0.258,-1.024 1.223,-1.024c0.466,0 0.831,0.145 1.003,0.269l0.031,0.023l0.182,-0.403l-0.023,-0.016c-0.208,-0.135 -0.624,-0.28 -1.168,-0.28c-0.993,0 -1.713,0.631 -1.713,1.5c0,0.749 0.481,1.265 1.514,1.626c0.824,0.324 1.146,0.695 1.146,1.325c0,0.713 -0.533,1.171 -1.358,1.171c-0.443,0 -0.899,-0.137 -1.254,-0.379l-0.03,-0.022l-0.182,0.4l0.022,0.015c0.312,0.232 0.902,0.402 1.401,0.402c1.29,0 1.867,-0.818 1.867,-1.629c0,-0.923 -0.591,-1.353 -1.477,-1.711" style="fill:#7e7c00;fill-rule:nonzero;"/><path d="M9.085,0.264c-0.022,0 -0.033,0 -0.033,0c-3.04,0 -5.803,1.62 -7.358,3.952c-1.023,1.524 -1.262,2.928 -1.262,2.928c-0.145,0.802 -0.174,1.941 0.469,2.328c0.988,0.632 2.433,-0.187 3.224,-1.01c1.191,-1.243 2.051,-2.392 3.297,-3.69c1.291,-1.349 3.269,-2.621 5.183,-2.084c-2.513,0.073 -4.425,2.254 -5.889,4.07c-1.485,1.843 -4.166,6.307 -6.454,3.412c0.326,3.395 3.5,4.983 5.794,2.268c1.671,-1.98 2.449,-4.766 4.099,-6.721c1.227,-1.453 2.98,-3.005 5.865,-2.025c-1.615,-2.053 -4.805,-2.597 -7.373,-1.572c0,0 -1.665,0.61 -3.346,2.51c-1.252,1.411 -1.57,1.704 -2.031,1.689l-0.065,-0.01c-0.74,-0.248 -0.364,-1.281 -0.07,-1.727c2.445,-3.76 7.042,-4.229 10.028,-3.293c-1.828,-0.942 -3.566,-1.021 -4.005,-1.025l-0.073,0Zm2.941,5.513c-1.672,1.979 -2.449,4.766 -4.099,6.72c-1.228,1.454 -2.98,3.007 -5.865,2.026c1.615,2.052 4.805,2.599 7.373,1.571c0,0 1.663,-0.609 3.346,-2.509c1.252,-1.411 1.57,-1.703 2.03,-1.69l0.066,0.011c0.74,0.247 0.363,1.281 0.07,1.727c-2.446,3.761 -7.042,4.228 -10.029,3.293c1.841,0.947 3.589,1.022 4.014,1.025l0.063,0c0.023,0 0.034,0 0.034,0c3.04,0 5.804,-1.621 7.358,-3.952c1.025,-1.525 1.261,-2.929 1.261,-2.929c0.146,-0.801 0.176,-1.942 -0.467,-2.328c-0.99,-0.63 -2.432,0.187 -3.224,1.01c-1.192,1.244 -2.052,2.392 -3.298,3.692c-1.29,1.347 -3.269,2.619 -5.182,2.082c2.511,-0.073 4.424,-2.253 5.889,-4.07c1.484,-1.842 4.165,-6.306 6.454,-3.412c-0.213,-2.201 -1.623,-3.643 -3.213,-3.643c-0.861,0 -1.775,0.422 -2.581,1.376Z" style="fill:url(#_Linear1);fill-rule:nonzero;"/></g><defs><linearGradient id="_Linear1" x1="0" y1="0" x2="1" y2="0" gradientUnits="userSpaceOnUse" gradientTransform="matrix(0,17.6887,17.6887,0,9.03868,0.262675)"><stop offset="0" style="stop-color:#c3ce00;stop-opacity:1"/><stop offset="1" style="stop-color:#7e7c00;stop-opacity:1"/></linearGradient></defs></svg>