<?xml version="1.0" encoding="UTF-8" standalone="no"?><!DOCTYPE svg PUBLIC "-//W3C//DTD SVG 1.1//EN" "http://www.w3.org/Graphics/SVG/1.1/DTD/svg11.dtd"><svg width="100%" height="100%" viewBox="0 0 160 32" version="1.1" xmlns="http://www.w3.org/2000/svg" xmlns:xlink="http://www.w3.org/1999/xlink" xml:space="preserve" xmlns:serif="http://www.serif.com/" style="fill-rule:evenodd;clip-rule:evenodd;stroke-linejoin:round;stroke-miterlimit:1.41421;"><g transform="matrix(0.049511,0,0,0.049511,-134.547,-70.0606)"><path d="M3575.78,1900.54l-28.736,0l0,-315.514l28.736,0l0,315.514Zm-32.8,-403.173c0,-18.577 6.096,-27.865 18.287,-27.865c5.999,0 10.691,2.419 14.078,7.256c3.386,4.838 5.079,11.708 5.079,20.609c0,8.708 -1.693,15.577 -5.079,20.609c-3.387,5.031 -8.079,7.546 -14.078,7.546c-12.191,0 -18.287,-9.385 -18.287,-28.155Z" style="fill:#fff;fill-rule:nonzero;"/><path d="M3937.12,1900.54l0,-204.634c0,-31.736 -6.676,-54.811 -20.028,-69.228c-13.352,-14.416 -34.057,-21.624 -62.116,-21.624c-37.734,0 -65.357,9.53 -82.869,28.591c-17.513,19.06 -26.269,49.973 -26.269,92.738l0,174.157l-28.736,0l0,-315.514l24.382,0l5.515,43.249l1.742,0c20.512,-32.896 56.988,-49.345 109.428,-49.345c71.598,0 107.397,38.412 107.397,115.234l0,206.376l-28.446,0Z" style="fill:#fff;fill-rule:nonzero;"/><path d="M4215.74,1906.34c-41.41,0 -73.533,-13.739 -96.366,-41.217c-22.834,-27.478 -34.251,-67.147 -34.251,-119.007c0,-53.215 11.417,-94.383 34.251,-123.506c22.833,-29.123 55.536,-43.685 98.108,-43.685c45.668,0 79.822,16.836 102.462,50.506l1.742,0l5.224,-44.41l24.382,0l0,458.322l-28.445,0l0,-120.168c0,-23.608 0.58,-47.603 1.741,-71.985l-1.741,0c-22.834,36.767 -58.536,55.15 -107.107,55.15Zm0.581,-25.543c38.314,0 65.647,-10.546 81.999,-31.638c16.351,-21.093 24.527,-56.505 24.527,-106.236l0,-3.483c0,-47.409 -8.224,-81.66 -24.673,-102.753c-16.448,-21.092 -42.668,-31.638 -78.66,-31.638c-34.058,0 -59.939,11.997 -77.645,35.992c-17.706,23.995 -26.559,59.214 -26.559,105.655c0,44.314 8.659,77.742 25.978,100.286c17.319,22.543 42.33,33.815 75.033,33.815Z" style="fill:#fff;fill-rule:nonzero;"/><path d="M4517.86,1585.02l0,204.344c0,31.735 6.676,54.811 20.028,69.227c13.352,14.416 34.058,21.625 62.116,21.625c37.541,0 65.164,-9.482 82.87,-28.446c17.706,-18.964 26.559,-49.828 26.559,-92.593l0,-174.157l28.445,0l0,315.514l-24.382,0l-5.224,-43.539l-1.742,0c-20.512,32.896 -56.988,49.344 -109.428,49.344c-71.792,0 -107.687,-38.411 -107.687,-115.234l0,-206.085l28.445,0Z" style="fill:#fff;fill-rule:nonzero;"/><path d="M5012.44,1578.93c44.119,0 77.354,13.885 99.704,41.653c22.351,27.768 33.526,68.356 33.526,121.764c0,52.441 -11.756,92.884 -35.267,121.33c-23.511,28.445 -56.553,42.668 -99.124,42.668c-22.447,0 -42.669,-4.644 -60.665,-13.932c-17.996,-9.289 -32.219,-22.447 -42.668,-39.476l-2.613,0l-8.127,47.603l-17.996,0l0,-451.647l28.736,0l0,113.493c0,17.028 -0.387,32.702 -1.161,47.022l-0.871,24.672l2.032,0c11.997,-18.964 26.462,-32.896 43.394,-41.798c16.932,-8.901 37.298,-13.352 61.1,-13.352Zm-0.581,26.124c-37.153,0 -63.761,10.643 -79.822,31.929c-16.061,21.285 -24.091,56.407 -24.091,105.364l0,4.935c0,47.603 8.369,81.757 25.107,102.462c16.739,20.705 42.814,31.058 78.226,31.058c34.444,0 60.374,-12.046 77.79,-36.137c17.415,-24.092 26.123,-58.391 26.123,-102.898c0,-91.142 -34.444,-136.713 -103.333,-136.713Z" style="fill:#fff;fill-rule:nonzero;"/><path d="M5396.71,1632.92c-18.771,0 -33.477,5.95 -44.12,17.851c-10.643,11.901 -16.738,28.784 -18.286,50.651l124.231,0c-0.387,-21.867 -6.095,-38.75 -17.125,-50.651c-11.03,-11.901 -25.93,-17.851 -44.7,-17.851Zm12.481,273.426c-52.247,0 -93.077,-14.416 -122.49,-43.249c-29.413,-28.832 -44.12,-69.663 -44.12,-122.49c0,-54.376 13.594,-96.415 40.782,-126.119c27.187,-29.703 64.776,-44.555 112.766,-44.555c45.861,0 81.564,13.062 107.107,39.186c25.543,26.123 38.314,62.212 38.314,108.267l0,42.959l-209.278,0c0.967,25.156 8.417,44.797 22.35,58.923c13.932,14.126 33.477,21.189 58.633,21.189c19.544,0 38.024,-2.032 55.439,-6.096c17.416,-4.063 35.606,-10.546 54.57,-19.447l0,68.501c-15.481,7.741 -32.026,13.498 -49.635,17.271c-17.609,3.773 -39.089,5.66 -64.438,5.66Z" style="fill:#fff;fill-rule:nonzero;"/><path d="M5719.73,1737.7c0,32.123 5.273,56.408 15.819,72.856c10.546,16.448 27.72,24.672 51.521,24.672c23.608,0 40.588,-8.176 50.941,-24.527c10.353,-16.351 15.529,-40.685 15.529,-73.001c0,-32.122 -5.225,-56.214 -15.674,-72.275c-10.449,-16.061 -27.575,-24.091 -51.376,-24.091c-23.608,0 -40.637,7.982 -51.086,23.946c-10.45,15.964 -15.674,40.105 -15.674,72.42Zm224.372,0c0,52.828 -13.933,94.142 -41.798,123.942c-27.865,29.8 -66.663,44.7 -116.395,44.7c-31.155,0 -58.633,-6.821 -82.434,-20.463c-23.801,-13.643 -42.088,-33.235 -54.859,-58.778c-12.772,-25.543 -19.158,-55.343 -19.158,-89.401c0,-53.021 13.836,-94.238 41.508,-123.651c27.671,-29.413 66.566,-44.12 116.685,-44.12c31.154,0 58.632,6.773 82.434,20.319c23.801,13.545 42.088,32.993 54.859,58.342c12.772,25.35 19.158,55.053 19.158,89.11Z" style="fill:#fff;fill-rule:nonzero;"/></g><path id="cube-outline" d="M26.489,21.338c0,0.561 -0.314,1.049 -0.776,1.297l-11.635,6.538c-0.237,0.164 -0.524,0.259 -0.834,0.259c-0.309,0 -0.596,-0.095 -0.833,-0.259l-11.635,-6.538c-0.462,-0.248 -0.776,-0.736 -0.776,-1.297l0,-13.244c0,-0.561 0.314,-1.049 0.776,-1.297l11.635,-6.538c0.237,-0.164 0.524,-0.259 0.833,-0.259c0.31,0 0.597,0.095 0.834,0.259l11.635,6.538c0.462,0.248 0.776,0.736 0.776,1.297l0,13.244Zm-13.243,-18.173l-8.771,4.929l8.771,4.928l8.768,-4.928l-8.768,-4.929Zm-10.303,17.312l8.83,4.962l0,-9.869l-8.83,-4.961l0,9.868Zm20.603,0l0,-9.868l-8.83,4.961l0,9.87l8.83,-4.963Z" style="fill:#fff;fill-rule:nonzero;"/></svg>